
<svg width="126" height="63" viewBox="0 0 126 63" fill="none" xmlns="http://www.w3.org/2000/svg">
<rect x="5" y="12" width="117" height="37" fill="white"/>
<path fill-rule="evenodd" clip-rule="evenodd" d="M36.5759 33.826H39.0786C40.0551 33.826 40.4265 34.1618 40.4265 34.9842C40.4265 35.776 40.0549 36.1114 39.0786 36.1114H36.5759V33.826ZM32.6986 42.1439H36.5761V38.7615H40.7292C43.479 38.7615 44.469 37.1475 44.469 35.0607C44.469 32.6383 43.451 31.2676 40.7012 31.2676H32.6986V42.1439Z" fill="#28458E"/>
<path fill-rule="evenodd" clip-rule="evenodd" d="M45.7477 31.2676H56.1834V33.9175H49.6251V35.38H55.7167V38.0311H49.6251V39.4933H56.1834V42.1439H45.7477V31.2676Z" fill="#28458E"/>
<path fill-rule="evenodd" clip-rule="evenodd" d="M61.6838 33.826H64.1864C65.1627 33.826 65.5342 34.1618 65.5342 34.9842C65.5342 35.776 65.1627 36.1114 64.1864 36.1114H61.6838V33.826ZM57.8064 42.1439H61.6838V38.7615H65.8363C68.5868 38.7615 69.577 37.1475 69.577 35.0607C69.577 32.6383 68.559 31.2676 65.8087 31.2676H57.8064V42.1439Z" fill="#28458E"/>
<path fill-rule="evenodd" clip-rule="evenodd" d="M73.3301 37.5282C71.4329 37.2078 70.6497 35.9892 70.6497 34.4663C70.6497 31.6477 73.1385 30.8867 76.3278 30.8867C80.6998 30.8867 82.5014 32.1506 82.639 34.4511H78.1288C78.1288 34.0093 77.895 33.7345 77.5381 33.5823C77.1942 33.4152 76.7545 33.3544 76.3278 33.3544C75.1728 33.3544 74.7745 33.6739 74.7745 34.1313C74.7745 34.4354 74.8977 34.6342 75.2827 34.6948L79.9163 35.4562C81.8692 35.776 83.0793 36.7814 83.0793 38.6242C83.0793 41.2756 81.1267 42.5247 76.7677 42.5247C73.7841 42.5247 70.5251 42.0679 70.5116 38.8688H75.1865C75.1997 39.2339 75.324 39.4776 75.5994 39.6453C75.8873 39.7978 76.3139 39.8742 76.9187 39.8742C78.1284 39.8742 78.459 39.5083 78.459 38.9903C78.459 38.6704 78.2798 38.3507 77.7584 38.2598L73.3301 37.5282Z" fill="#28458E"/>
<path fill-rule="evenodd" clip-rule="evenodd" d="M84.3438 31.2676H88.221V42.1439H84.3438V31.2676Z" fill="#28458E"/>
<path fill-rule="evenodd" clip-rule="evenodd" d="M102.591 37.9092C102.343 39.3412 101.903 40.4989 100.94 41.2908C99.9919 42.083 98.5064 42.5249 96.1419 42.5249C93.7907 42.5249 89.4319 42.3417 89.4319 36.7062C89.4319 31.0696 93.7907 30.8867 96.1419 30.8867C98.4788 30.8867 102.082 31.2215 102.591 35.5331H98.2183C98.1082 34.7555 97.64 33.6284 96.1419 33.6284C94.5599 33.6284 93.5563 34.4966 93.5563 36.706C93.5563 38.9148 94.5328 39.7825 95.949 39.7825C97.1731 39.7825 97.9018 39.219 98.2181 37.9091H102.591V37.9092Z" fill="#28458E"/>
<path fill-rule="evenodd" clip-rule="evenodd" d="M107.664 36.7062C107.664 34.4966 108.668 33.6286 110.25 33.6286C111.831 33.6286 112.835 34.4968 112.835 36.7062C112.835 38.915 111.831 39.7827 110.25 39.7827C108.668 39.7825 107.664 38.9148 107.664 36.7062ZM103.539 36.7062C103.539 42.3415 107.898 42.5249 110.25 42.5249C112.601 42.5249 116.96 42.3417 116.96 36.7062C116.96 31.0696 112.601 30.8867 110.25 30.8867C107.898 30.8867 103.539 31.0694 103.539 36.7062Z" fill="#28458E"/>
<path fill-rule="evenodd" clip-rule="evenodd" d="M26.8397 31.3746C27.0901 26.1565 22.574 20.2801 16.4173 19.5537L16.4278 19.4824C22.4974 19.4824 27.1503 25.0814 27.1503 29.4985C27.1445 30.418 27.0716 30.9877 26.9417 31.4014L26.8397 31.3746ZM26.4719 32.0379C26.0681 32.5295 25.5602 33.0246 24.9652 33.4945C23.8706 27.2212 19.2442 21.7356 15.9735 20.1345L15.9034 20.1831C19.1928 22.8732 23.1161 28.0977 24.6418 33.7406C23.9119 34.2767 23.0682 34.77 22.136 35.1705C19.032 31.6434 16.1382 24.8409 15.2056 20.5243L15.1108 20.5528C15.1318 24.7429 18.1173 31.856 21.7581 35.3268C20.9501 35.6444 20.0812 35.892 19.1687 36.0397C15.6788 34.662 13.1946 30.2496 13.1946 25.7296C13.1946 22.7788 14.0975 20.9535 14.2722 20.5799L14.1978 20.5505C13.9865 20.8691 12.6638 22.6935 12.6638 25.8791C12.6638 30.9883 15.1925 34.8935 18.5497 36.1233C17.4011 36.2478 16.1925 36.2102 14.9525 35.9551L14.9275 36.0329C15.2866 36.1647 16.505 36.6743 18.3637 36.6743C22.5678 36.6743 25.4098 34.0715 26.5538 32.0931L26.4719 32.0379Z" fill="#28458E"/>
<path fill-rule="evenodd" clip-rule="evenodd" d="M17.9434 17.6396C14.7564 17.6396 11.0194 19.9316 11.0194 22.0266C11.0194 22.837 11.7634 23.5216 13.3032 23.5216C16.8777 23.5216 20.1986 21.0745 20.1986 19.1717C20.1986 18.1704 19.2335 17.6396 17.9434 17.6396ZM19.2157 19.1126C19.2157 20.7165 16.1247 22.6772 13.5408 22.6772C12.3992 22.6772 11.7824 22.2295 11.7824 21.4908C11.7824 19.8638 14.9085 17.9365 17.3322 17.9365C18.9124 17.9365 19.2157 18.7377 19.2157 19.1126Z" fill="#0096D6"/>
<path fill-rule="evenodd" clip-rule="evenodd" d="M9.74961 22.9983C9.66001 23.1527 9.30127 23.8526 9.30127 24.5698C9.30127 25.9 10.65 27.1348 13.1308 27.1348C17.9033 27.1348 23.417 23.6344 23.417 20.3852C23.417 18.9267 22.0314 18.1337 21.0694 17.9697L21.0514 18.0266C21.3506 18.1209 22.4467 18.6287 22.4467 19.928C22.4467 22.5169 17.5785 26.0444 12.7293 26.0444C10.8728 26.0444 9.70321 25.1313 9.70321 23.8012C9.70321 23.3804 9.79112 23.1033 9.81441 23.023L9.74961 22.9983Z" fill="#EB7B30"/>
<path fill-rule="evenodd" clip-rule="evenodd" d="M25.3847 20.625C25.5156 20.724 26.3017 21.3768 26.3017 22.6113C26.3017 26.8205 19.6831 30.9595 13.8318 30.9595C10.3424 30.9595 8.75175 29.2427 8.82218 27.7183H8.88473C9.02147 28.5099 10.1544 29.9265 13.2084 29.9265C19.0671 29.9265 25.6084 25.6438 25.6084 21.8915C25.6084 21.2479 25.433 20.8468 25.3338 20.6684L25.3847 20.625Z" fill="#00984A"/>
<path fill-rule="evenodd" clip-rule="evenodd" d="M27.5969 24.5557C27.6243 24.6453 27.7669 25.0483 27.7669 25.6794C27.7669 30.3617 21.0689 34.3702 15.2435 34.3702C12.2453 34.3702 10.6796 32.919 10.349 32.3296L10.4023 32.2903C11.232 33.0133 12.866 33.5626 14.773 33.5626C19.9179 33.5626 27.5949 29.6623 27.5263 24.5727L27.5969 24.5557Z" fill="#DF002C"/>
</svg>
